<svg xmlns="http://www.w3.org/2000/svg" xmlns:xlink="http://www.w3.org/1999/xlink" viewBox="0 0 1080 1080"><defs/><switch><g><path fill="#a1a9c1" d="M587 38h-21c-5 0-5 8 0 8h21c5 0 5-8 0-8z"/><path fill="#a1a9c1" d="M573 32v21c0 5 8 5 8 0V32c0-5-8-5-8 0zm284 464l11-4v-19l-10 4h-1v19zm22-9l11-4v-37c-1 0-8 4-11 4v37zm22-11c0 2 8-3 11-4v-67l-10 4h-1v67z"/><path fill="#d8dce6" d="M953 624l1-1v-55l-1-2c-4-2-30-14-35-14-1 0-3 1-3 3v53l2 2 36 14z"/><path fill="#c5c9d5" d="M933 639l1-2v-54l-1-2c-4-2-30-15-35-14-1 0-4 0-4 3l1 52 2 3 36 14z"/><path fill="#a1a9c1" d="M913 653l1-1v-55l-1-2c-4-2-30-14-35-14-1 0-4 1-4 4v9l1 19v18c0 3-1 6 1 8l4 2a467 467 0 0024 9l7 2 2 1z"/><path fill="#fff" d="M903 603l-17-8c-3-1-6 4-3 5l17 8c3 1 6-4 3-5zm-6 8l-11-5c-3-1-6 4-3 5l11 5c3 2 6-3 3-5zm6 14l-17-8c-3-1-6 4-3 5l17 8c3 1 6-4 3-5zm-11 6l-6-3-4 1 1 4 6 3c1 1 3 0 4-1s0-3-1-4z"/><path fill="#a1a9c1" d="M297 397a49 49 0 01-76-37 49 49 0 1186 28l6 14-16-5z"/><path fill="#fff" d="M293 332h-42c-4 0-4 8 0 8h42c5 0 5-8 0-8zm-16 13h-26c-4 0-4 8 0 8h26c5 0 5-8 0-8zm8 14h-34c-4 0-4 7 0 7h34c4 0 5-7 0-7zm-15 13h-19c-4 0-4 7 0 7h19c4 0 4-7 0-7z"/><path fill="#d8dada" d="M633 936c-10-7-20-15-28-25-8-9-13-22-12-34 0-4 1-9 4-12 5-6 14-6 20-10 8-6 10-17 10-26 0-17-6-33-9-50-2-10-3-21-1-32 2-10 8-19 14-27 2-2 3-5 3-7-1-4-5-5-9-7-5-1-9-4-13-8-3-4-4-9-6-14a646 646 0 00-18-55l5-7c17-13 40-15 60-22 8-3 16-7 25-8s19 2 23 10l3 8c5 8 17 9 24 3 6-5 7-13 5-21-3-7-9-9-14-14-9-7-8-20-6-30l5-33c1-5 2-10 5-13 3-5 10-6 16-6 8 0 17 3 25 2 7 0 20 12 20 12V240l-95-34-108-39-74-26c-21-7-43-17-66-12-6 2-23 9-30 17-7 7-20 21-20 45v606"/><path fill="#fff" d="M375 853c36 13 141 51 178 63l98 35c1-3-2-6-5-6l-11-1c-8-2-15-7-21-13-8-9-14-20-19-32-3-6-6-12-6-19-1-7 2-14 8-17 8-4 19-1 23-8l2-7c1-23-3-45-4-68-2-23 2-48 16-66-18-21-33-45-43-71-2-5-3-11 0-15l6-5a330 330 0 0187-26c8 1 16 4 19 11 4 5 5 13 11 15h6c7-3 13-9 14-17 2-7-1-15-7-20l-10-8c-8-9-4-22-8-34-2-8-9-15-10-24-2-10 5-20 13-27 10-9 24 10 29-3 5-15 3-57 4-72V316c0-23-11-42-26-55-16-13-38-18-58-25l-108-39-109-38c-13-5-25-5-38 3-10 6-14 17-15 29v587c0 19-28 71-16 75z"/><path fill="#d0d6e0" d="M620 849l-206-80-1-239V259l303 108-1 35c0 73-3 146 1 220-8-4-12-12-17-19-5-6-11-13-20-12-6 0-11 4-17 7-20 12-47 10-65 24l-4 5 1 6 21 49c3 6 6 13 10 18 2 3 5 5 5 8 1 3 0 6-2 9-10 25-13 62-7 90 1 6-1 42-1 42z"/><path fill="#fff" d="M579 518l136 50c5 1 7-7 2-9l-136-49c-5-2-7 7-2 8zm0 23l44 16c6 2 8-6 3-8l-45-16c-5-2-7 6-2 8zm104-12l-100-36c-5-2-9-7-9-12V379c0-6 7-11 13-9l101 36c5 2 8 7 8 13v101c0 7-7 11-13 9z"/><path fill="#41301d" d="M611 468l-4-1v-5l4 1v5zm53 19l-3-1v-5l3 1v5z"/><path fill="#654f42" d="M662 450l-53-19v-8c0-3 2-5 5-4l43 16c3 1 5 4 5 7v8z"/><path fill="#669746" d="M670 466l-69-24 6-8 57 20 6 12z"/><path fill="#dae8ea" d="M669 480l-66-23v-7l66 23v7zm-5-26l-57-20 2-3 53 19 2 4z"/><path fill="#d6ddde" d="M631 440l-17-6-1-2-1-4 2-1 18 6 1 2-1 4-1 1zm26 9l-17-6-1-1-1-5 1-1 19 6 1 2-1 5h-1z"/><path fill="#654f42" d="M669 484l-66-24v-3l66 23v4z"/><path fill="#79a947" d="M671 468v3l-71-25v-3l1-1 69 24 1 2z"/><path fill="#669746" d="M671 471v1c0 3-2 4-4 3l-63-22c-2-1-4-3-4-6v-1l71 25z"/><path fill="#fff" d="M579 753l136 49c5 2 7-6 2-8l-136-49c-5-2-7 6-2 8zm0 23l44 16c6 2 8-7 3-9l-44-15c-6-2-8 6-3 8zm104-12l-100-37c-5-1-9-6-9-12V614c0-7 7-11 13-9l101 36c5 2 8 7 8 12v102c0 6-7 11-13 9z"/><g><path fill="#fff" d="M434 701l98 35c5 2 7-6 2-8l-97-35c-6-2-8 6-3 8zm1 22l45 17c5 2 7-7 2-8l-45-17c-5-2-8 6-2 8zm111-9l-100-36c-5-2-9-7-9-13V564c0-7 6-11 13-9l100 36c6 2 9 7 9 12v83l-1 19c0 7-6 11-12 9z"/><path fill="#f3bf58" d="M520 615l-46-17c-4-1-7-1-7 3v27c0 3 3 7 7 8l46 16c3 1 6 0 6-3v-27c0-4-3-6-6-7z"/><path fill="#253128" d="M471 652l-6-2v-5l6 3zm50 18l7 2v-4l-7-3z"/><path fill="#f3bf58" d="M516 646l-12-4-33-12v19l33 12 12 4 8 3v-19z"/><path fill="#d79e3b" d="M516 646l-12-4-33-12v2l33 12 12 4 8 3v-2z"/><path fill="#d79e3b" d="M462 625v21l12 4v-25c0-6-7-20-14-15-4 3 2 10 2 15zm68 24v21l-11-4v-25c0-6 7-15 13-6 5 7-2 9-2 14z"/></g><g><path fill="#d8dada" d="M540 261l60 22c9 3 13-11 4-14l-60-22c-9-3-12 11-4 14z"/></g><g><path fill="none" d="M416 259l299 108M458 777l163 60m94-467v114M416 258v118"/></g><g><path fill="#fff" d="M435 466l88 32c5 2 7-7 2-8l-88-32c-5-2-8 6-2 8zm0 23l86 31c5 2 7-6 2-8l-86-32c-5-1-8 7-2 9zm111-10l-100-36c-5-2-9-7-9-12V329c0-6 6-11 13-9l100 36c6 2 9 7 9 13v82l-1 19c0 7-6 11-12 9z"/><path fill="#4c8242" d="M502 411l7-31s-9 4-15 28"/><path fill="#73aa47" d="M508 412s4-15 7-19c0 0-9 0-15 17l6 4 2-2z"/><path fill="#4c8242" d="M485 405s-5-32-7-36c0 0 10 11 15 39"/><path fill="#73aa47" d="M490 404v-37s8 22 8 41m-19-6s-3-18-7-24c0 0 10 6 16 27l-6 1-3-4z"/><path fill="#e1923b" d="M494 436l-7-3c-10-3-18-20-18-30v-4c0-1 1-2 3-1l22 7v31z"/><path fill="#be7f39" d="M494 436l6 2c10 3 18-7 18-17v-4l-2-4-22-8v31z"/></g><g><path d="M270 708l16-4c4-1 2-7-2-6l-15 3c-5 1-3 7 1 7zM170 866l151-32c5-1 3-7-1-6l-152 32c-4 1-3 7 2 6zm-51-177l32 27c9 8 16 14 28 11 4-1 2-7-2-6-12 3-19-8-27-15l-27-22c-3-3-7 2-4 5z"/><path d="M110 794v22c1 6 5 8 10 12l46 37c3 3 8-2 4-5l-36-29c-5-5-12-9-15-15s-2-15-2-22c0-5-7-5-7 0zM95 694l-29 36c-1 2-2 4 0 5a1176 1176 0 0052 46c3 2 5 5 9 4 5-1 10-10 13-14l22-29c2-3-4-7-6-3l-17 22-9 12-2 3c-3 2-1 2-4 1-4 0-10-8-13-11a1022 1022 0 01-41-36v5l30-36c3-3-2-8-5-5zm80 49l19 39c4 8 6 14 15 13 36-4 71-14 106-22 4-1 3-8-1-7l-91 20c-6 1-15 4-19 0-3-3-5-8-7-12l-16-35c-2-4-8 0-6 4z"/><path d="M85 697l-2-1v6c11-8 23-18 36-21l36-7c4-1 2-8-2-7l-38 8c-12 4-25 14-35 21-2 2-2 5 0 6l2 1c4 2 7-3 3-6zm160-21c11-14 5-31-6-43-4-6-11-13-18-15-6-2-7 4-9 9 0 3 5 5 6 1 2-10 17 8 19 11 8 10 12 22 4 33-2 3 2 7 4 4zm-49-49c-13-15-20 7-23 18-6 16-6 36 11 44 3 2 6-3 3-4-12-7-14-20-11-32l4-12c2-5 5-18 12-10 3 3 7-1 4-4z"/><path d="M196 633l17-2c3 0 3-6 0-6l-18 3c-4 1-2 6 1 5zm-22 48c-7 7-12 15-16 25-1 3 5 5 6 1 3-8 8-16 14-22 3-3-1-7-4-4zm56 16c-5 6-14 21-10 29 5 9 15 1 19-4 4-6 7-8 14-11 4-2 8-4 9-10 2-9-5-24-13-30-3-2-5 3-2 5 6 5 14 22 5 29l-14 7c-3 2-10 19-13 8-1-5 7-16 9-19 3-3-1-7-4-4zm-24-44c3 0 3-6 0-6-4 0-4 6 0 6zm14-4c4 0 4-5 0-5s-4 5 0 5zm-14 15c3 1 7 1 9-1s3-5 3-7c0-4-6-4-5 0l-2 3h-3c-2-1-3 0-4 2l2 3z"/><path d="M213 656c2 6 10 8 13 3 2-3-3-6-5-3l-3-1c0-2-2-3-3-2-2 0-3 2-2 3z"/><path fill="#ffc8d2" d="M238 648l-3-2-3 1-2 3-1 1 1 3c1 2 4 3 6 2 5-1 5-6 2-8zm-49 9l4-2 4 1 2 3v5c-2 3-5 4-8 3-5-1-5-7-2-10z"/><path d="M184 724l12 4 10 2c5-1 10-4 10-10 2-11-15-17-24-17-4 0-4 5 0 5s22 5 19 12-11 3-15 1-6-2-10-2c-4-1-5 5-2 5z"/></g><g><path fill="#fff" d="M558 433c-1-2-4-2-6-4l-1-1c-1-1-2-2-4-1-3 0-6 2-8 4l-7 8-2 1h-2c-2 0-2 1-3 2-3 5-3 11-3 17v8l2 9 1 5-1 4-4 3-3 5-8 11-13 16-1 1a89 89 0 01-7 6c-2 2-4 1-6 2h-6l-11-3a1815 1815 0 01-47-11c-4-1-3-2-3-5 0-6-1-13 4-17l4-3c5-2 9-6 11-11l4-6v-8c-1-12 0-25 1-37l-1-9c0-3-2-5-3-6-4-4-8-8-13-9-6-2-13 2-19 6a100 100 0 00-40 82v10c0 3 2 8 1 11s-10 7-13 10l-15 14-6 9-4 12-4 13c0 3-2 5-3 7l-8 3c-8 2-16 4-23 9l-5 6-2 7-3 47c-1 8-1 17 3 24 2 3 4 5 7 6h5l16-1h5c3 1 5 5 7 7 5 5 12 6 18 5 4-1 7-2 11-1s8 1 10 5c2 5 2 14 2 20l-2 24c-1 9-4 17-4 26l-3 27-3 17-4 18c-2 12-2 25-2 38 2 19 4 39 3 59 0 6-1 13-6 16-3 2-6 2-7 4l-2 6c0 6 5 13 11 16 5 3 13 3 18 0l9-3 12-4 8-3-4 6c-1 4 1 7 3 10a34 34 0 0011 8h4c16-1 33-4 48-9 6-2 12-4 16-8 5-4 5-11 5-17-1-5-3-9-6-12-4-4-9-6-14-6-7-1-14 2-21 1h-2v-2c-1-21 3-43 4-64 1-12-1-23 1-35l2-5 4-3 2-7 4-19c1-5 3-10 3-16 0-5-2-10-4-15-17-52-15-101-14-156l1-22 3-6-2-10 1-3 2-1 23-2 33-4 12-3c4-2 8-4 9-9l8-15a601 601 0 0123-41l7-11c3-4 4-8 6-13 2-8 5-17 2-25l-1-5-1-3v-1zM382 913l-1 1-7 2 2-33 1-16 2-15 5-26 1-3h9l2 3c2 6 1 14 3 21 2 4 1 8 2 12l2 15v17c0 7-1 14-4 20l-1 1h-1c-3-2-6-2-9-2l-6 3z"/><path fill="#646464" d="M359 478c-3-5-9-8-12-14-2-5-1-9-2-14 0-6 1-12 4-18 2-8 7-14 12-21 6-8 12-16 21-21l14-3c5 0 10 2 14 4l12 4c4 1 8 1 11 3 6 2 9 10 10 15l2 7 2 5c0 4-2 10-4 14h-1c-3-4-3-9-5-12-2 5-5 8-8 12l-7 7c-3 2-4 5-6 8 0 1 0 3-2 3l-1-1c-3-2-7-3-10-2-3 2-6 5-6 8l3 6 2 4 1 5-4 6c-5 3-10 5-16 6h-8a17 17 0 01-10-1l-1-1-5-9z"/><path fill="#35c5f0" d="M376 821a424 424 0 0033 2l16-2c5-2 11 0 16-3l7-2c2-2 1-7 1-9v-18l-1-12c0-11-2-16 0-27 1-7 0-14-1-20l-1-23c-3-26-4-52-5-78 0-13-3-23-4-36v-11c-1-5 1-11-1-15l-7 2c-3 0-7-3-8-6-3-3-4-7-5-11l-2-17c0-6 1-15 6-19l-7-3c-2-1-3-3-6-3-11-3-24-4-36-3-4 0-8 0-11 3l-5 5c-13 19-10 40-11 62-1 27 4 57 3 83-1 16-2 59-6 94-3 28-9 52-9 52l1 1 13 4c7 3 8 6 16 7l14 3z"/><path d="M333 805l-3-3c-2-1-2-1 0-2l2-9 2-15 3-39c2-26 5-51 6-77 2-26 4-52 4-78 1-23 1-51 14-71 3-4-3-7-5-4-13 20-14 45-15 68l-4 85-7 84c-1 15-1 29-4 43l-4 16c1 3 4 4 6 6 3 3 8-2 5-4zm100-227l7 90c2 28 2 57 5 86l2 20v31l1 10c-2 3-17 2-20 3-29 3-56 0-84-10-4-1-6 5-2 7 20 7 40 11 61 11l31-2c6-1 13-1 19-4l1-3v-31l-2-28-3-57-10-123c0-4-7-5-6 0zm-13-85c25-1 25-39 24-56 0-4-6-4-6 0 1 13 2 49-18 49-4 1-4 7 0 7z"/><path d="M426 400c8 3 13 8 16 16 3 9-1 16-3 24 0 4 5 6 6 2 3-12 7-19 1-31-4-8-10-14-18-17-4-1-5 4-2 6z"/><path d="M368 486c-5-11-16-18-20-30-4-11-3-25 3-35 5-9 13-19 22-25 15-9 32-6 47 0 4 2 5-4 2-6-16-6-33-9-49-1-10 5-18 15-24 24-8 11-10 21-9 35 1 7 3 13 6 19 5 7 13 13 16 21 1 4 7 2 6-2zm26 345l2 54 1 27c1 9 3 19 1 28-1 8-7 24 4 30s26-4 37-6c4-1 2-7-2-6l-17 5-10 2c-8-2-9-8-7-15l3-15-2-21c0-27-2-56-4-83 0-4-7-4-6 0z"/><path d="M431 939l5-60c2-19 2-39 5-58 0-4-7-4-7 0-3 19-3 39-5 58l-4 60c-1 4 6 4 6 0zm-62-448l-2 13c-1 4 4 6 6 2l2-15c0-4-7-4-6 0zm39-20c-3-1-5-2-6-6-1-2-1-8 3-8 4 1 4-5 0-6-7-1-10 7-9 13 0 6 4 12 11 13 4 0 5-5 1-6z"/><path d="M434 419c-2 13-11 26-24 30-3 1-2 7 2 6 15-5 26-20 28-35 1-4-5-5-6-1z"/><path d="M418 448c-1 5-3 9-1 13 1 4 7 3 6-1-1-3 0-7 1-10 1-4-5-5-6-2zm-85 131l-36 5c-9 1-15 3-17 12-3 15-2 31-3 46 0 8-4 28 2 36 3 5 12 8 18 9 11 1 21-5 32-4 4 0 4-7 0-7-14-1-42 14-46-9-1-8 1-18 1-26l2-38 1-7c2-5 8-5 13-6l33-4c4 0 4-7 0-7z"/><path d="M330 665c-3 4-4 9-5 15 0 4 7 4 7 0 0-5 1-9 4-12 2-4-4-7-6-3zm-19 17c1 4 3 7 6 9 4 3 8 3 12 4 4 0 4-7 0-7-3 0-6 0-8-2-2-1-3-3-3-6-2-4-8-2-7 2zm40-169c-9 7-15 17-19 28l-16 40c-2 4 5 6 6 2l15-35c4-11 9-22 19-30 3-3-2-7-5-5zm99 447c1-7-1-12-4-18-2-5-7-8-12-10-4-1-6 5-2 7 4 1 7 3 9 7s3 8 2 12c0 5 6 6 7 2z"/><path d="M435 933c11-4 31-3 36 10 5 15-16 22-27 26l-30 10c-8 1-17 3-24-2-3-2-7-7-6-12 0-4 6-7 9-9s0-8-4-5c-6 4-11 7-12 16-1 7 4 12 10 16 8 5 18 4 26 2 13-2 25-6 36-11 9-3 19-7 26-14 6-6 5-12 2-19-5-17-29-19-44-15-4 1-2 8 2 7zm-93-112c-2 8-1 16-1 23l1 32 1 23c1 10 3 19 0 30-2 8-4 22 7 25 6 2 13 0 18-1l25-8c4-1 2-8-2-6-6 2-13 3-19 6l-8 2c-5 1-7 2-11-1-8-6-3-14-2-22 1-6 0-12-1-19l-1-37c-1-14-3-31-1-45 1-4-6-6-6-2z"/><path d="M377 922c2-31 4-62 8-93 0-4-7-4-7 0l-7 93c-1 4 6 4 6 0zm19 15c-1-7-4-16-11-19-4-2-7 3-3 5 4 3 7 9 8 14 0 5 7 5 6 0zm-28 22c-8 3-18 6-26 1-4-2-8-4-9-9 0-6 6-8 10-10 4-1 2-8-2-6-5 2-11 4-13 9s-2 11 2 15c9 13 26 12 40 7 4-2 2-8-2-7zm32-49c-5-2-10-2-15-1-4 1-2 7 2 7 3-1 7-2 10 0 4 2 7-4 3-6zm92-379c14-15 25-32 37-49 3-3-3-6-5-3-12 16-23 33-37 47-2 3 2 8 5 5z"/><path d="M405 514c7 1 13 5 20 6l18 4 44 8c4 1 5-5 1-6l-47-8-20-5-16-5c-4 0-4 6 0 6zm113 35c12-19 22-40 30-60 2-4-4-5-6-2-8 20-18 40-29 58-2 4 3 7 5 4z"/><path d="M429 567a235 235 0 0077-6c6-3 9-7 12-12 2-4-3-7-5-4-5 8-10 11-18 13l-23 3h-43c-3-1-3 5 0 6zm101-89c-2-5-4-12-4-17-1-4 0-8 1-12a242 242 0 000-7c3 3 7-2 4-4-7-6-9 1-10 7-2 12-2 23 3 35 1 3 7 2 6-2zm29-35l-5 22c-1 5-2 11-6 16-2 2-4 3-5 6-3 3 3 6 5 3 4-6 9-8 11-16l4-19c1-5 4-21-6-18-4 1-2 7 2 6z"/><path d="M552 457c2-5 1-11 8-14 3-2 0-7-4-6-3 2-6 5-7 8l-3 11c-1 4 5 5 6 1zm-17-5l4-14 5-8 4-2v3c-1 4 5 6 6 2 0-3 2-8-2-10-3-3-8-1-11 1-8 6-10 17-12 27-1 3 5 5 6 1z"/><path d="M544 455c1-6 2-12 6-16l4-5c2 0 0 4-1 5-1 4 5 6 6 2s5-8 1-12c-2-3-6-3-9-1-7 6-12 16-13 25-1 4 5 6 6 2zm-132 38c-1 6-2 11-1 17 0 4 6 4 6 0-1-5 0-10 1-15 1-4-5-6-6-2z"/></g><g><path fill="#fff" d="M834 750c-7-4-18-4-24-10-5-5-4-17-3-24l4-39c3-27 5-56-10-78-6-9-13-6-17-15-5-11-7-23-10-34v-16l-2-22c-3-11-7-21-14-29l-9-6-10-1c-6 0-13 2-18 6-8 6-11 15-14 24a7217 7217 0 00-5 23c0 5 5 7 7 12 2 4 0 10 0 15 0 13 3 29 15 34 6 2 13 3 13 9l-2 5-5 8-6 6c-7 4-15-2-19-8s-7-14-13-19c-6-4-16 4-23 7s-20 1-27 5c-14 8-23 11-39 14-3 1-7 2-9 4-5 4-4 12-3 18 7 26 20 50 39 70l3 4-3 6c-11 16-11 37-11 56v74l-1 7c-4 7-14 5-22 9-6 3-9 11-9 18s4 14 8 20c12 17 28 31 46 40 4 2 8 4 10 8l1 7c1 20-6 42 2 61 5 10 13 18 23 24 39 26 90 24 133 6 12-5 24-13 31-24 11-14 11-34 11-52v-25l-1-119v-30c-1-7 2-15 1-22-2-11-8-20-18-27z"/><path fill="#fae1b7" d="M698 686v15c0 4 2 8 0 11l-9 8c-3 4-4 10-4 15l2 20 2 7 4 5a125 125 0 0024 26l3 1h12l-8-35c-1-4-1-8 1-10h5l25-1 8 1c3 3 3 8 2 12l-2 17v7c1 3 2 5 5 5 1 1 3 0 5-1l22-10 5-4 2-4c5-18 4-38 5-57 0-30 6-59 3-89-1-11-3-23-12-29l-4-2c-4 0-6 4-8 7-3 4-7 5-12 5-4 1-9 0-13-1-8 0-15 0-22 2-7 1-9 5-15 8l-7 5c-7 6-10 14-14 22l-4 9-2 15c-1 6 1 13 1 20z"/><path fill="#646464" d="M790 571l3-4 3-5 7-10c5-4 5-12 9-17 2-4 2-9 1-14l-2-7-1-6c-1-5-4-10-8-13l-7-4c-7-3-14-7-20-13l-4-3-6-2c-5-1-9-1-14 1l-16 4c-5 2-8 6-11 10l-7 14-12 27v3l1 2c6 4 14 6 20 12 2 3 6 5 9 7l4 3c2 2 2 5 2 7v2c-1 4-1 10 3 12 4 3 9 5 14 6l5-1 9-1 6-1c3-1 4-3 6-5l6-4z"/><defs><path id="a" d="M705 632l-14-20-4-4-6 1-70 24c-4 2-6 5-4 9l8 15a1130 1130 0 0121 36c3 1 6-1 9-2 4-3 35-13 51-20"/></defs><use fill="#c2c4c5" overflow="visible" xlink:href="#a"/><clipPath id="b"><use overflow="visible" xlink:href="#a"/></clipPath><path fill="#d8dada" d="M697 620c1-2-3-7-4-9l-4-3c-5-3-12-2-18-1a185 185 0 00-61 24l-4 4v6c0 2 2 9 4 11l1 1c1 0 85-31 86-33z" clip-path="url(#b)"/><path fill="#c65f5a" d="M620 643c4 0 4-6 0-6s-4 6 0 6z"/><path fill="#dda546" d="M631 639c3 0 3-6 0-6-4 0-4 6 0 6z"/><path fill="#80b16a" d="M642 635c3 0 3-5 0-5-4 0-4 5 0 5z"/><path d="M656 1004l-1-209c0-4-6-4-6 0v209c0 4 7 4 7 0zm200-4V788c0-4-7-4-7 0v212c0 4 7 4 7 0zm-98-254c1 20 1 41 3 61 0 4 6 4 6 0-2-20-2-41-3-61-1-4-7-4-6 0zm-39 9c4 19 11 38 17 57 1 4 7 3 6-1-7-19-13-38-17-58-1-4-7-2-6 2z"/><path d="M749 601l-21 9c-6 3-11 6-15 10-8 9-15 23-18 34-2 14 1 28 1 43-1 16 3 32 7 47l3 2c12 3 24 7 36 7 11-1 22-5 32-10 1-1 2-3 1-4-1-9-3-17-6-25-5-11-6-22-10-33-1-4-8-2-6 2 3 9 3 19 7 28 4 10 8 19 9 30l2-4a64 64 0 01-57 5c-6-3-6-5-7-11a207 207 0 01-5-40l-1-24c0-11 3-18 8-28 4-8 9-16 17-20 7-4 17-9 25-11 4-1 2-8-2-7zM626 721c-8 12-8 24-8 38l-1 50v24c0 6-2 17 0 22 4 9 17 12 25 13 4 1 4-6 0-6-8-1-17-4-18-12-2-5 0-12 0-17v-72c0-14 0-25 7-37 3-4-3-7-5-3zm167-126c7 6 14 13 16 23 3 10 0 20-1 30-2 15 0 30 0 44 0 16-3 31-3 47 0 10 0 19-5 28-5 7-12 12-20 16-4 2-1 8 3 6 15-7 26-18 28-35l1-28 3-30-1-28 2-32c3-20-3-33-19-46-3-2-8 2-4 5z"/><path d="M711 614c-5-7-13-23-22-24s-21 4-30 7a827 827 0 00-57 20c-5 2-10 4-13 7-8 8-2 18 2 27 6 15 15 28 23 42 6 10 8 19 21 22 14 4 31 3 46 4 5 0 4-6 0-7l-35-2c-7 0-13-1-18-5l-7-14-17-29c-4-6-7-12-9-19-3-7-5-13 3-17 18-9 39-15 58-21l24-7c13-3 19 11 25 19 3 4 9 0 6-3zm-7 165l-19-7-23-8c-4-2-6 4-2 6l22 8 8 4c3 1 7 1 10 3 4 2 7-4 4-6z"/><path d="M720 792c-4-1-7-3-9-5l-7-7c-3-3-8 2-4 4l8 9 10 5c4 1 6-5 2-6zm-97 72c1 6 3 15-4 19-3 3 0 8 4 6 9-6 7-17 6-27-1-4-7-2-6 2z"/><path d="M609 857c-21 1-29 20-21 38 6 12 15 21 23 30 9 9 19 19 31 23 5 2 6-5 2-6-15-5-29-22-39-34-6-7-12-15-14-24-2-12 7-20 18-20 5-1 5-7 0-7z"/><path d="M623 879c-8 4-13 11-16 19-1 4 6 6 7 2 1-7 6-12 12-15 4-2 1-8-3-6z"/><path d="M611 904l17 17c5 5 9 8 16 8 4 0 4-7 0-7-7 0-11-6-16-10l-13-13c-3-2-8 2-4 5zm123-91l-6 8-3 8c-2 5-7 12-6 18 2 10 14 4 17-1 2-4-3-7-5-3-1 0-4 4-5 3-2-1 0-4 1-5l4-10 3-8 5-7c2-3-3-6-5-3zm28-5c4 6 11 12 13 19 2 6 3 21-2 26-3 3 2 7 5 5 6-7 5-19 4-28-1-10-8-16-14-25-3-3-8 0-6 3zm-13 30l1 19c0 3-1 9 1 12 3 5 8 3 11 0 4-5 4-10 4-16v-16c0-4-6-3-5 1l-1 20c0 3-1 6-3 8h-1 1l-1-4-1-24c-1-4-7-4-6 0z"/><path d="M737 838l2 21c1 5 3 9 9 10 3 1 5-5 1-6s-4-7-5-11l-1-14c0-4-6-4-6 0zm34-1v13c-1 5-1 9-7 11-3 1-2 7 2 6 6-2 9-4 10-10 2-7 2-13 1-20 0-4-6-4-6 0zm-100-9c12 7 25 10 39 12 4 1 6-5 1-6-13-2-25-5-37-12-3-2-7 4-3 6zm-2-60c-9 4-18 11-20 22-1 10 3 19 9 27 2 3 8 0 6-3-5-6-9-13-9-21 1-9 9-16 17-19 4-2 0-8-3-6zm-20 233c0 26 17 42 38 52 28 13 58 15 88 11 32-5 80-25 81-64 0-4-7-4-7 0 0 34-42 51-70 56-27 6-55 5-81-6-22-8-42-22-42-49 0-4-7-4-7 0zm144-168c15-3 28-6 40-15 10-8 20-17 22-30 4-22-12-39-31-46-4-2-6 5-2 6 18 7 34 26 25 46-11 21-35 29-56 33-4 1-2 7 2 6zm-55-360c-12 0-19 1-26 11l-6 15c-2 8-2 18-9 23-2 0-3 2-2 3 2 6 8 11 12 14 9 7 16 13 28 12 4 0 4-6 0-6-10 0-29-11-34-21l-1 3c7-5 9-12 11-20 1-6 2-11 5-17 5-8 12-10 22-10 4 0 4-6 0-7z"/><path d="M781 579c8-3 12-3 16-10l14-23c2-7 6-13 6-21 0-5-2-10-4-15s-3-12-7-16c-5-5-13-7-18-10-9-6-14-12-24-14h-11l-15 3c-4 0-4 7 0 7 7 0 13-4 20-4 9 0 14 4 21 9 6 5 13 7 19 11 5 4 6 9 8 14l4 11c1 7-2 13-4 19-3 7-7 11-11 17l-4 8c-3 5-7 6-12 7-4 2-2 8 2 7zm-74-32c0 14 0 42 20 41 4 0 5-7 0-6-15 0-14-25-13-35 0-4-6-4-7 0zm21 5l-1 11c0 5 6 6 7 2v-13c0-5-7-5-6 0z"/><path d="M731 588c3 7 2 13 2 21 0 4 6 4 7 0 0-8 0-15-3-23-1-3-8-2-6 2zm47-10c1 6 3 12 8 17 3 3 8-2 5-5-4-4-6-9-7-14-1-4-8-2-6 2z"/></g><g><path d="M431 159c15 2 31 9 46 15l45 16 92 32c27 10 56 18 82 29 27 12 45 36 46 65 0 4 6 4 6 0-1-24-13-47-33-61-11-8-25-13-38-17l-47-16-101-36-51-18c-15-6-31-13-47-15-4-1-4 5 0 6zm-37 208V234c0-25-7-62 22-74 4-1 2-7-1-6-32 13-27 46-27 74v139c0 4 6 4 6 0zm242 593l-156-62-22-9c-4-1-6 5-2 6l156 62 23 9c3 2 5-4 1-6z"/><path d="M739 220l-227-80c-29-11-57-22-87-7a67 67 0 00-37 58c0 4 6 4 6 0 1-28 19-49 45-58 16-5 33-1 49 4l48 18 201 71c4 1 5-5 2-6zm3 96l-1 137c1 4 7 4 7 0V316c0-4-6-4-6 0zm39 12v135c0 4 6 4 6 0V328c0-4-6-4-6 0z"/></g><g><linearGradient id="c" x1="775.1" x2="701.5" y1="109.1" y2="311.3" gradientUnits="userSpaceOnUse"><stop offset="0" stop-color="#35c5f0"/><stop offset="1" stop-color="#487b97"/></linearGradient><path fill="url(#c)" d="M840 312c0 8 0 15-5 21-4 4-20 14-22 15-2 2-2 1-4 1l-5-1c-3 0-5-1-7-3l-1-4c-3-7-10-11-16-14l-14-7-13-6-31-11-25-9c-11-3-22-6-31-13-8-7-14-17-14-29V131c0-4-3-5-6-7l-6-6-2-3-1-3a110 110 0 01-2-11l2-3 4-7 6-6c4-3 9-6 15-8 3-1 7-2 11-1 11 0 21 5 32 9l17 6 8 3 8 3 58 20c11 4 22 6 31 14 8 6 13 17 13 29v152z"/><path fill="#35c5f0" d="M822 326v7c-1 6-3 11-8 15-7 4-13 4-20 2l-58-21-58-20c-10-4-22-7-30-14s-14-17-14-29V107c1-6 3-12 8-15 7-4 13-4 20-2l58 21 58 20c10 4 22 7 30 14s14 17 14 29v152z"/><path fill="#fff" d="M757 271c0 3 4 4 4-2l-10-3-20-7-18-7c-4-1-13-2-14-8-1-15-26-16-24 0 2 29 33 33 55 41 12 4 26 12 38 8 10-3 14-13 14-22 0-16-25-16-25 0z"/><path fill="#fff" d="M675 199v45c0 16 24 16 24 0v-45c0-16-24-16-24 0zm82 33v39c0 16 25 16 25 0v-39c0-16-25-16-25 0z"/><path fill="#fff" d="M699 199c1-6 10-11 15-15l10-8 3-3c3-2 4-1 0 0l-9-1c4 2 7 8 10 12a594 594 0 0126 33c3 4 3 8 3 15 1 16 25 16 25 0 0-7 0-16-4-23l-11-16c-9-12-19-25-30-36-12-15-23-4-35 5l-18 15c-7 6-9 13-9 22-1 16 23 16 24 0z"/><path fill="#35c5f0" d="M781 237c4-3 6-10 6-14 1-4-2-14-8-18-4-3-8-6-13-6-6 0-14 3-19 13-2 4-2 14 0 18l9 8c6 4 20 3 25-1z"/><path fill="#fff" d="M787 243c11-10 11-27 3-39-9-14-29-17-41-7-12 9-17 29-6 41 10 12 29 15 42 6 9-6 1-21-8-15-5 4-14 4-19 0-6-5-5-14 1-19 12-9 26 11 16 21-8 7 4 20 12 12z"/></g></g></switch></svg>