<svg xmlns="http://www.w3.org/2000/svg" viewBox="0 0 146 50">
    <g fill="none" fill-rule="evenodd">
        <path fill="#35C5F0" d="M38.377 0H8.343C4.023 0 0 4.018 0 8.333v33.334C0 45.982 4.022 50 8.343 50h33.371c4.32 0 8.343-4.018 8.343-8.333V8.333C50.057 4.018 46.034 0 41.714 0h-3.337z"/>
        <path fill="#FFF" d="M36.689 26.025a3.31 3.31 0 0 1-3.311-3.307 3.31 3.31 0 0 1 3.31-3.308A3.31 3.31 0 0 1 40 22.718a3.31 3.31 0 0 1-3.311 3.307zm-2.468 8.689H15.136V22.089l9.542-6.646 5.47 3.81a7.398 7.398 0 0 0 4.073 10.438v5.023zm2.468-19.392c-.841 0-1.65.142-2.403.4l-7.913-5.51a2.962 2.962 0 0 0-3.388 0l-11.846 8.25a2.956 2.956 0 0 0-1.267 2.427v16.126a2.96 2.96 0 0 0 2.96 2.958h23.692a2.96 2.96 0 0 0 2.962-2.958v-7.45a7.396 7.396 0 0 0 4.607-6.847c0-4.084-3.315-7.396-7.404-7.396z"/>
        <g fill="#000">
            <path d="M77.37 37.096h-5.71v-5.18a1.683 1.683 0 0 0-3.368 0v5.18h-5.71a1.684 1.684 0 1 0 0 3.365H77.37a1.683 1.683 0 1 0 0-3.365M66.11 18.53c0-5.322 2.422-6.117 3.866-6.117s3.866.795 3.866 6.117v.418c0 5.322-2.422 6.117-3.866 6.117s-3.866-.795-3.866-6.117v-.419zm3.866 9.9c4.463 0 7.236-3.633 7.236-9.482v-.419c0-5.847-2.773-9.481-7.236-9.481-4.463 0-7.235 3.634-7.235 9.482v.418c0 5.849 2.772 9.482 7.235 9.482zM99.608 19.915H81.55a1.684 1.684 0 1 0 0 3.366h18.057a1.683 1.683 0 1 0 0-3.366M97.806 37.872c-8.207 2.13-10.958.919-11.76.3-.525-.407-.76-.938-.76-1.723v-1.002h11.898c.93 0 1.684-.754 1.684-1.683V27.88c0-.93-.754-1.683-1.684-1.683H83.602a1.683 1.683 0 1 0 0 3.365h11.897v2.52H83.602c-.93 0-1.685.754-1.685 1.683v2.685c0 1.823.715 3.34 2.068 4.384 1.386 1.071 3.406 1.607 6.042 1.607 2.379 0 5.26-.437 8.626-1.31a1.682 1.682 0 1 0-.847-3.258M84.454 17h12.54a1.684 1.684 0 1 0 0-3.365H86.138V9.612c0-.93-.754-1.683-1.685-1.683-.93 0-1.684.753-1.684 1.683v5.705c0 .93.754 1.683 1.684 1.683M144.214 8.493c-.93 0-1.685.754-1.685 1.683v13.578a1.684 1.684 0 0 0 3.369 0V10.176c0-.929-.754-1.683-1.684-1.683M135.71 23.31a1.686 1.686 0 0 0 2.156 1.002 1.682 1.682 0 0 0 1.009-2.156c-.054-.15-1.157-3.104-3.912-5.208l4.279-4.754a1.681 1.681 0 0 0-1.254-2.808h-10.494a1.683 1.683 0 1 0 0 3.365h6.715l-3.091 3.435-.012.014-4.865 5.405a1.682 1.682 0 0 0 1.252 2.808c.462 0 .92-.189 1.254-.558l3.954-4.393c2.092 1.478 2.988 3.792 3.009 3.848M141.584 38.651h-8.136a.945.945 0 0 1-.945-.943v-2.261h10.025v2.26c0 .52-.423.944-.944.944m2.63-10.852c-.931 0-1.686.753-1.686 1.682v2.6h-10.025v-2.6c0-.93-.754-1.682-1.685-1.682-.93 0-1.684.753-1.684 1.682v8.227a4.317 4.317 0 0 0 4.314 4.309h8.136a4.317 4.317 0 0 0 4.314-4.31v-8.226c0-.93-.754-1.682-1.685-1.682M110.152 12.413c2.568 0 2.698 4.907 2.698 5.89 0 .984-.13 5.891-2.698 5.891-2.566 0-2.696-4.907-2.696-5.89 0-.984.13-5.89 2.696-5.89m0 15.146c2.04 0 3.743-1.082 4.795-3.044.832-1.554 1.272-3.702 1.272-6.212s-.44-4.658-1.272-6.212c-1.052-1.963-2.755-3.044-4.795-3.044s-3.742 1.081-4.793 3.044c-.833 1.554-1.273 3.702-1.273 6.212s.44 4.658 1.273 6.212c1.051 1.962 2.754 3.044 4.793 3.044"/>
            <path d="M120.516 8.493c-.93 0-1.685.754-1.685 1.683v20.598c-2.232.694-6.663 1.306-12.03 1.306h-2.566a1.684 1.684 0 1 0 0 3.365h2.565c3.063 0 8.363-.269 12.031-1.18v5.604a1.684 1.684 0 0 0 3.37 0V10.176c0-.929-.754-1.683-1.685-1.683"/>
        </g>
    </g>
</svg>
