<svg xmlns="http://www.w3.org/2000/svg"><g fill="none" fill-rule="evenodd"><g fill="#000"><path d="M46.012 22.25h-3.47v-3.153a1.024 1.024 0 00-2.048 0v3.152h-3.47a1.024 1.024 0 000 2.048h8.988a1.024 1.024 0 000-2.048m-6.844-11.297c0-3.238 1.472-3.722 2.35-3.722.878 0 2.349.484 2.349 3.722v.255c0 3.238-1.471 3.722-2.349 3.722-.878 0-2.35-.484-2.35-3.722v-.255zm2.35 6.024c2.712 0 4.398-2.211 4.398-5.77v-.254c0-3.56-1.686-5.77-4.398-5.77-2.713 0-4.398 2.21-4.398 5.77v.255c0 3.558 1.685 5.769 4.398 5.769zm18.01-5.181H48.553a1.024 1.024 0 000 2.048h10.975a1.025 1.025 0 000-2.048m-1.095 10.927c-4.988 1.296-6.66.559-7.147.182-.32-.247-.462-.57-.462-1.048v-.61h7.23c.566 0 1.025-.458 1.025-1.024V16.64c0-.565-.46-1.024-1.024-1.024H49.8a1.024 1.024 0 000 2.048h7.23v1.533H49.8c-.566 0-1.024.459-1.024 1.024v1.634c0 1.109.434 2.032 1.257 2.668.842.652 2.07.977 3.672.977 1.446 0 3.197-.265 5.243-.797a1.025 1.025 0 00-.515-1.982m-8.115-12.7h7.622a1.023 1.023 0 000-2.048h-6.598V5.525a1.024 1.024 0 00-2.048 0v3.472c0 .566.459 1.024 1.024 1.024M86.64 4.845c-.565 0-1.024.458-1.024 1.024v8.262a1.024 1.024 0 002.048 0V5.869c0-.566-.46-1.024-1.024-1.024m-5.169 9.015a1.024 1.024 0 001.924-.701c-.033-.091-.703-1.89-2.378-3.17l2.6-2.893a1.023 1.023 0 00-.76-1.708h-6.38a1.025 1.025 0 000 2.048h4.081l-4.842 5.386a1.024 1.024 0 101.523 1.37l2.403-2.673c1.272.9 1.816 2.308 1.83 2.342m3.569 9.335h-4.944a.576.576 0 01-.575-.574v-1.376h6.093v1.376a.575.575 0 01-.573.574m1.597-6.604c-.564 0-1.023.458-1.023 1.023v1.583h-6.094v-1.583a1.023 1.023 0 10-2.047 0v5.007a2.625 2.625 0 002.622 2.622h4.945a2.625 2.625 0 002.622-2.622v-5.007c0-.565-.458-1.023-1.024-1.023M65.938 7.23c1.56 0 1.638 2.986 1.638 3.584 0 .6-.078 3.584-1.638 3.584-1.562 0-1.64-2.985-1.64-3.584 0-.598.079-3.584 1.64-3.584m0 9.216c1.24 0 2.273-.657 2.913-1.852.507-.946.773-2.252.773-3.78 0-1.527-.266-2.834-.772-3.78-.64-1.194-1.675-1.852-2.915-1.852s-2.274.658-2.913 1.852c-.507.946-.774 2.253-.774 3.78 0 1.528.267 2.834.773 3.78.64 1.195 1.674 1.852 2.914 1.852"/><path d="M72.236 4.845c-.565 0-1.024.458-1.024 1.024v12.533c-1.357.423-4.05.795-7.313.795H62.34a1.024 1.024 0 000 2.048h1.56c1.861 0 5.082-.164 7.312-.718v3.41a1.025 1.025 0 002.048 0V5.869c0-.566-.459-1.024-1.024-1.024"/></g><path fill="#35C5F0" d="M24.615 0H5.385A5.385 5.385 0 000 5.385v19.23A5.385 5.385 0 005.385 30h19.23A5.385 5.385 0 0030 24.615V5.385A5.385 5.385 0 0024.615 0" mask="M0 0v30h30V0z"/><path fill="#FFF" d="M22.3 15.513a2.012 2.012 0 110-4.025 2.012 2.012 0 010 4.025zM20.8 20.8H9.2v-7.682L15 9.074l3.324 2.318a4.5 4.5 0 002.476 6.351V20.8zM22.3 9c-.511 0-1.002.087-1.461.244l-4.81-3.354a1.806 1.806 0 00-2.058 0L6.77 10.91c-.482.338-.77.889-.77 1.478V22.2A1.8 1.8 0 007.8 24h14.4a1.8 1.8 0 001.8-1.8v-4.533A4.501 4.501 0 0022.3 9z"/></g></svg>
